{"title":"Yoga Hosers 2016 WEB-DL x264-FGT","uid":15985851,"size":796305691,"categoryP":"video","categoryS":"movies","magnet":"?xt=urn:btih:758f63b076c280ee1877c12d01ab76cea09212fa&amp;dn=Yoga+Hosers+2016+WEB-DL+x264-FGT&amp;tr=udp%3A%2F%2Ftracker.leechers-paradise.org%3A6969&amp;tr=udp%3A%2F%2Fzer0day.ch%3A1337&amp;tr=udp%3A%2F%2Fopen.demonii.com%3A1337&amp;tr=udp%3A%2F%2Ftracker.coppersurfer.tk%3A6969&amp;tr=udp%3A%2F%2Fexodus.desync.com%3A6969","seeders":2,"leechers":0,"uploader":"PirateNeon2","files":1,"time":1475968726,"description":"Plot:\tSet in the Great White North of Canada| YOGA HOSERS tells the story of Colleen Collette and Colleen McKenzie - two teenage besties from Winnipeg who spend their\r\nlives doing Yoga with their faces in their phones| 'Liking' or 'Not Liking' the real world around them. But when these Sophomore girls are invited to a Senior party\r\nby the school hottie| the Colleens accidentally uncover an ancient evil| long buried beneath the Manitoba earth.\r\n\r\nVideo\r\nID                                       : 1\r\nFormat                                   : AVC\r\nFormat/Info                              : Advanced Video Codec\r\nFormat profile                           :   \r\nFormat settings, CABAC                   : Yes\r\nFormat settings, ReFrames                : 5 frames\r\nCodec ID                                 : avc1\r\nCodec ID/Info                            : Advanced Video Coding\r\nDuration                                 : 1h 27mn\r\nBit rate                                 : 1 100 Kbps\r\nWidth                                    : 720 pixels\r\nHeight                                   : 304 pixels\r\nDisplay aspect ratio                     : 2.40:1\r\nOriginal display aspect ratio            : 2.40:1\r\nFrame rate mode                          : Constant\r\nFrame rate                               : 24.000 fps\r\nColor space                              : YUV\r\nChroma subsampling                       : 4:2:0\r\nBit depth                                : 8 bits\r\nScan type                                : Progressive\r\nBits/(Pixel*Frame)                       : 0.209\r\nStream size                              : 675 MiB (89%)\r\nTitle                                    : Yoga.Hosers.2016.WEB-DL.x264-FGT\r\nWriting library                          : x264 core 148 r2597M e86f3a1\r\n\r\nAudio\r\nID                                       : 2\r\nFormat                                   : AAC\r\nFormat/Info                              : Advanced Audio Codec\r\nFormat profile                           : LC\r\nCodec ID                                 : 40\r\nDuration                                 : 1h 27mn\r\nBit rate mode                            : Variable\r\nBit rate                                 : 128 Kbps\r\nMaximum bit rate                         : 31.3 Mbps\r\nChannel(s)                               : 2 channels\r\nChannel positions                        : Front: L R\r\nSampling rate                            : 48.0 KHz\r\nFrame rate                               : 46.875 fps (1024 spf)\r\nCompression mode                         : Lossy\r\nStream size                              : 79.9 MiB (11%)\r\nTitle                                    : Yoga.Hosers.2016.WEB-DL.x264-FGT\r\nLanguage                                 : English\r\nDefault                                  : Yes\r\nAlternate group                          : 1","torrent":{"xt":"urn:btih:758f63b076c280ee1877c12d01ab76cea09212fa","amp;dn":"Yoga+Hosers+2016+WEB-DL+x264-FGT","amp;tr":["udp%3A%2F%2Ftracker.leechers-paradise.org%3A6969","udp%3A%2F%2Fzer0day.ch%3A1337","udp%3A%2F%2Fopen.demonii.com%3A1337","udp%3A%2F%2Ftracker.coppersurfer.tk%3A6969","udp%3A%2F%2Fexodus.desync.com%3A6969"],"infoHash":"758f63b076c280ee1877c12d01ab76cea09212fa","infoHashBuffer":{"type":"Buffer","data":[117,143,99,176,118,194,128,238,24,119,193,45,1,171,118,206,160,146,18,250]},"announce":[],"urlList":[]}}